<svg width="1590" height="700" xmlns="http://www.w3.org/2000/svg"><style>
            .node { fill: #f0f0f0; stroke: #333; stroke-width: 2; }
            .text { font-family: sans-serif; font-size: 14px; text-anchor: middle; dominant-baseline: middle; fill: #333; }
            .link { stroke: #666; stroke-width: 2; }
        </style><rect x="0" y="0" width="1590" height="700" fill="#ffffff" /><line x1="560" y1="40" x2="560" y2="120" class="link" /><line x1="560" y1="120" x2="90" y2="200" class="link" /><line x1="560" y1="120" x2="250" y2="200" class="link" /><line x1="560" y1="120" x2="410" y2="200" class="link" /><line x1="560" y1="120" x2="1030" y2="200" class="link" /><line x1="90" y1="200" x2="50" y2="280" class="link" /><line x1="90" y1="200" x2="130" y2="280" class="link" /><line x1="250" y1="200" x2="210" y2="280" class="link" /><line x1="250" y1="200" x2="290" y2="280" class="link" /><line x1="410" y1="200" x2="370" y2="280" class="link" /><line x1="410" y1="200" x2="450" y2="280" class="link" /><line x1="1030" y1="200" x2="570" y2="280" class="link" /><line x1="1030" y1="200" x2="805" y2="280" class="link" /><line x1="1030" y1="200" x2="1260" y2="280" class="link" /><line x1="1030" y1="200" x2="1490" y2="280" class="link" /><line x1="570" y1="280" x2="530" y2="360" class="link" /><line x1="570" y1="280" x2="610" y2="360" class="link" /><line x1="805" y1="280" x2="690" y2="360" class="link" /><line x1="805" y1="280" x2="920" y2="360" class="link" /><line x1="920" y1="360" x2="810" y2="440" class="link" /><line x1="920" y1="360" x2="1030" y2="440" class="link" /><line x1="810" y1="440" x2="770" y2="520" class="link" /><line x1="810" y1="440" x2="850" y2="520" class="link" /><line x1="1030" y1="440" x2="970" y2="520" class="link" /><line x1="1030" y1="440" x2="1090" y2="520" class="link" /><line x1="970" y1="520" x2="930" y2="600" class="link" /><line x1="970" y1="520" x2="1010" y2="600" class="link" /><line x1="1260" y1="280" x2="1170" y2="360" class="link" /><line x1="1260" y1="280" x2="1350" y2="360" class="link" /><line x1="1350" y1="360" x2="1290" y2="440" class="link" /><line x1="1350" y1="360" x2="1410" y2="440" class="link" /><line x1="1290" y1="440" x2="1250" y2="520" class="link" /><line x1="1290" y1="440" x2="1330" y2="520" class="link" /><g transform="translate(560, 40)"><rect x="-81" y="-15" width="162" height="30" rx="5" class="node" /><text class="text">Program(part10ast)</text></g><g transform="translate(560, 120)"><rect x="-25" y="-15" width="50" height="30" rx="5" class="node" /><text class="text">Block</text></g><g transform="translate(90, 200)"><rect x="-31.5" y="-15" width="63" height="30" rx="5" class="node" /><text class="text">VarDecl</text></g><g transform="translate(50, 280)"><rect x="-27" y="-15" width="54" height="30" rx="5" class="node" /><text class="text">Var(a)</text></g><g transform="translate(130, 280)"><rect x="-58.5" y="-15" width="117" height="30" rx="5" class="node" /><text class="text">Type(INTEGER)</text></g><g transform="translate(250, 200)"><rect x="-31.5" y="-15" width="63" height="30" rx="5" class="node" /><text class="text">VarDecl</text></g><g transform="translate(210, 280)"><rect x="-27" y="-15" width="54" height="30" rx="5" class="node" /><text class="text">Var(b)</text></g><g transform="translate(290, 280)"><rect x="-58.5" y="-15" width="117" height="30" rx="5" class="node" /><text class="text">Type(INTEGER)</text></g><g transform="translate(410, 200)"><rect x="-31.5" y="-15" width="63" height="30" rx="5" class="node" /><text class="text">VarDecl</text></g><g transform="translate(370, 280)"><rect x="-27" y="-15" width="54" height="30" rx="5" class="node" /><text class="text">Var(y)</text></g><g transform="translate(450, 280)"><rect x="-45" y="-15" width="90" height="30" rx="5" class="node" /><text class="text">Type(REAL)</text></g><g transform="translate(1030, 200)"><rect x="-36" y="-15" width="72" height="30" rx="5" class="node" /><text class="text">Compound</text></g><g transform="translate(570, 280)"><rect x="-45" y="-15" width="90" height="30" rx="5" class="node" /><text class="text">Assign(:=)</text></g><g transform="translate(530, 360)"><rect x="-27" y="-15" width="54" height="30" rx="5" class="node" /><text class="text">Var(a)</text></g><g transform="translate(610, 360)"><rect x="-27" y="-15" width="54" height="30" rx="5" class="node" /><text class="text">Num(2)</text></g><g transform="translate(805, 280)"><rect x="-45" y="-15" width="90" height="30" rx="5" class="node" /><text class="text">Assign(:=)</text></g><g transform="translate(690, 360)"><rect x="-27" y="-15" width="54" height="30" rx="5" class="node" /><text class="text">Var(b)</text></g><g transform="translate(920, 360)"><rect x="-36" y="-15" width="72" height="30" rx="5" class="node" /><text class="text">BinOp(+)</text></g><g transform="translate(810, 440)"><rect x="-36" y="-15" width="72" height="30" rx="5" class="node" /><text class="text">BinOp(*)</text></g><g transform="translate(770, 520)"><rect x="-31.5" y="-15" width="63" height="30" rx="5" class="node" /><text class="text">Num(10)</text></g><g transform="translate(850, 520)"><rect x="-27" y="-15" width="54" height="30" rx="5" class="node" /><text class="text">Var(a)</text></g><g transform="translate(1030, 440)"><rect x="-45" y="-15" width="90" height="30" rx="5" class="node" /><text class="text">BinOp(DIV)</text></g><g transform="translate(970, 520)"><rect x="-36" y="-15" width="72" height="30" rx="5" class="node" /><text class="text">BinOp(*)</text></g><g transform="translate(930, 600)"><rect x="-31.5" y="-15" width="63" height="30" rx="5" class="node" /><text class="text">Num(10)</text></g><g transform="translate(1010, 600)"><rect x="-27" y="-15" width="54" height="30" rx="5" class="node" /><text class="text">Var(a)</text></g><g transform="translate(1090, 520)"><rect x="-27" y="-15" width="54" height="30" rx="5" class="node" /><text class="text">Num(4)</text></g><g transform="translate(1260, 280)"><rect x="-45" y="-15" width="90" height="30" rx="5" class="node" /><text class="text">Assign(:=)</text></g><g transform="translate(1170, 360)"><rect x="-27" y="-15" width="54" height="30" rx="5" class="node" /><text class="text">Var(y)</text></g><g transform="translate(1350, 360)"><rect x="-36" y="-15" width="72" height="30" rx="5" class="node" /><text class="text">BinOp(+)</text></g><g transform="translate(1290, 440)"><rect x="-36" y="-15" width="72" height="30" rx="5" class="node" /><text class="text">BinOp(/)</text></g><g transform="translate(1250, 520)"><rect x="-31.5" y="-15" width="63" height="30" rx="5" class="node" /><text class="text">Num(20)</text></g><g transform="translate(1330, 520)"><rect x="-27" y="-15" width="54" height="30" rx="5" class="node" /><text class="text">Num(7)</text></g><g transform="translate(1410, 440)"><rect x="-40.5" y="-15" width="81" height="30" rx="5" class="node" /><text class="text">Num(3.14)</text></g><g transform="translate(1490, 280)"><rect x="-25" y="-15" width="50" height="30" rx="5" class="node" /><text class="text">NoOp</text></g></svg>