<svg width="550" height="460" xmlns="http://www.w3.org/2000/svg"><style>
            .node { fill: #f0f0f0; stroke: #333; stroke-width: 2; }
            .text { font-family: sans-serif; font-size: 14px; text-anchor: middle; dominant-baseline: middle; fill: #333; }
            .link { stroke: #666; stroke-width: 2; }
        </style><rect x="0" y="0" width="550" height="460" fill="#ffffff" /><line x1="240" y1="40" x2="240" y2="120" class="link" /><line x1="240" y1="120" x2="90" y2="200" class="link" /><line x1="240" y1="120" x2="210" y2="200" class="link" /><line x1="240" y1="120" x2="390" y2="200" class="link" /><line x1="90" y1="200" x2="50" y2="280" class="link" /><line x1="90" y1="200" x2="130" y2="280" class="link" /><line x1="390" y1="200" x2="330" y2="280" class="link" /><line x1="390" y1="200" x2="450" y2="280" class="link" /><line x1="330" y1="280" x2="290" y2="360" class="link" /><line x1="330" y1="280" x2="370" y2="360" class="link" /><g transform="translate(240, 40)"><rect x="-67.5" y="-15" width="135" height="30" rx="5" class="node" /><text class="text">Program(part12)</text></g><g transform="translate(240, 120)"><rect x="-25" y="-15" width="50" height="30" rx="5" class="node" /><text class="text">Block</text></g><g transform="translate(90, 200)"><rect x="-31.5" y="-15" width="63" height="30" rx="5" class="node" /><text class="text">VarDecl</text></g><g transform="translate(50, 280)"><rect x="-27" y="-15" width="54" height="30" rx="5" class="node" /><text class="text">Var(a)</text></g><g transform="translate(130, 280)"><rect x="-58.5" y="-15" width="117" height="30" rx="5" class="node" /><text class="text">Type(INTEGER)</text></g><g transform="translate(210, 200)"><rect x="-54" y="-15" width="108" height="30" rx="5" class="node" /><text class="text">Function(p1)</text></g><g transform="translate(390, 200)"><rect x="-36" y="-15" width="72" height="30" rx="5" class="node" /><text class="text">Compound</text></g><g transform="translate(330, 280)"><rect x="-45" y="-15" width="90" height="30" rx="5" class="node" /><text class="text">Assign(:=)</text></g><g transform="translate(290, 360)"><rect x="-27" y="-15" width="54" height="30" rx="5" class="node" /><text class="text">Var(a)</text></g><g transform="translate(370, 360)"><rect x="-31.5" y="-15" width="63" height="30" rx="5" class="node" /><text class="text">Num(10)</text></g><g transform="translate(450, 280)"><rect x="-25" y="-15" width="50" height="30" rx="5" class="node" /><text class="text">NoOp</text></g></svg>