<svg width="1350" height="620" xmlns="http://www.w3.org/2000/svg"><style>
            .node { fill: #f0f0f0; stroke: #333; stroke-width: 2; }
            .text { font-family: sans-serif; font-size: 14px; text-anchor: middle; dominant-baseline: middle; fill: #333; }
            .link { stroke: #666; stroke-width: 2; }
        </style><line x1="875" y1="40" x2="500" y2="120" class="link" /><line x1="875" y1="40" x2="1130" y2="120" class="link" /><line x1="875" y1="40" x2="1250" y2="120" class="link" /><line x1="500" y1="120" x2="90" y2="200" class="link" /><line x1="500" y1="120" x2="250" y2="200" class="link" /><line x1="500" y1="120" x2="485" y2="200" class="link" /><line x1="500" y1="120" x2="910" y2="200" class="link" /><line x1="90" y1="200" x2="50" y2="280" class="link" /><line x1="90" y1="200" x2="130" y2="280" class="link" /><line x1="250" y1="200" x2="210" y2="280" class="link" /><line x1="250" y1="200" x2="290" y2="280" class="link" /><line x1="485" y1="200" x2="370" y2="280" class="link" /><line x1="485" y1="200" x2="600" y2="280" class="link" /><line x1="600" y1="280" x2="490" y2="360" class="link" /><line x1="600" y1="280" x2="710" y2="360" class="link" /><line x1="490" y1="360" x2="450" y2="440" class="link" /><line x1="490" y1="360" x2="530" y2="440" class="link" /><line x1="710" y1="360" x2="650" y2="440" class="link" /><line x1="710" y1="360" x2="770" y2="440" class="link" /><line x1="650" y1="440" x2="610" y2="520" class="link" /><line x1="650" y1="440" x2="690" y2="520" class="link" /><line x1="910" y1="200" x2="850" y2="280" class="link" /><line x1="910" y1="200" x2="970" y2="280" class="link" /><line x1="970" y1="280" x2="930" y2="360" class="link" /><line x1="970" y1="280" x2="1010" y2="360" class="link" /><line x1="1010" y1="360" x2="1010" y2="440" class="link" /><line x1="1130" y1="120" x2="1090" y2="200" class="link" /><line x1="1130" y1="120" x2="1170" y2="200" class="link" /><g transform="translate(875, 40)"><rect x="-36" y="-15" width="72" height="30" rx="5" class="node" /><text class="text">Compound</text></g><g transform="translate(500, 120)"><rect x="-36" y="-15" width="72" height="30" rx="5" class="node" /><text class="text">Compound</text></g><g transform="translate(90, 200)"><rect x="-45" y="-15" width="90" height="30" rx="5" class="node" /><text class="text">Assign(:=)</text></g><g transform="translate(50, 280)"><rect x="-49.5" y="-15" width="99" height="30" rx="5" class="node" /><text class="text">Var(number)</text></g><g transform="translate(130, 280)"><rect x="-27" y="-15" width="54" height="30" rx="5" class="node" /><text class="text">Num(2)</text></g><g transform="translate(250, 200)"><rect x="-45" y="-15" width="90" height="30" rx="5" class="node" /><text class="text">Assign(:=)</text></g><g transform="translate(210, 280)"><rect x="-27" y="-15" width="54" height="30" rx="5" class="node" /><text class="text">Var(a)</text></g><g transform="translate(290, 280)"><rect x="-49.5" y="-15" width="99" height="30" rx="5" class="node" /><text class="text">Var(number)</text></g><g transform="translate(485, 200)"><rect x="-45" y="-15" width="90" height="30" rx="5" class="node" /><text class="text">Assign(:=)</text></g><g transform="translate(370, 280)"><rect x="-27" y="-15" width="54" height="30" rx="5" class="node" /><text class="text">Var(b)</text></g><g transform="translate(600, 280)"><rect x="-36" y="-15" width="72" height="30" rx="5" class="node" /><text class="text">BinOp(+)</text></g><g transform="translate(490, 360)"><rect x="-36" y="-15" width="72" height="30" rx="5" class="node" /><text class="text">BinOp(*)</text></g><g transform="translate(450, 440)"><rect x="-31.5" y="-15" width="63" height="30" rx="5" class="node" /><text class="text">Num(10)</text></g><g transform="translate(530, 440)"><rect x="-27" y="-15" width="54" height="30" rx="5" class="node" /><text class="text">Var(a)</text></g><g transform="translate(710, 360)"><rect x="-36" y="-15" width="72" height="30" rx="5" class="node" /><text class="text">BinOp(/)</text></g><g transform="translate(650, 440)"><rect x="-36" y="-15" width="72" height="30" rx="5" class="node" /><text class="text">BinOp(*)</text></g><g transform="translate(610, 520)"><rect x="-31.5" y="-15" width="63" height="30" rx="5" class="node" /><text class="text">Num(10)</text></g><g transform="translate(690, 520)"><rect x="-49.5" y="-15" width="99" height="30" rx="5" class="node" /><text class="text">Var(number)</text></g><g transform="translate(770, 440)"><rect x="-27" y="-15" width="54" height="30" rx="5" class="node" /><text class="text">Num(4)</text></g><g transform="translate(910, 200)"><rect x="-45" y="-15" width="90" height="30" rx="5" class="node" /><text class="text">Assign(:=)</text></g><g transform="translate(850, 280)"><rect x="-27" y="-15" width="54" height="30" rx="5" class="node" /><text class="text">Var(c)</text></g><g transform="translate(970, 280)"><rect x="-36" y="-15" width="72" height="30" rx="5" class="node" /><text class="text">BinOp(-)</text></g><g transform="translate(930, 360)"><rect x="-27" y="-15" width="54" height="30" rx="5" class="node" /><text class="text">Var(a)</text></g><g transform="translate(1010, 360)"><rect x="-36" y="-15" width="72" height="30" rx="5" class="node" /><text class="text">Unary(-)</text></g><g transform="translate(1010, 440)"><rect x="-27" y="-15" width="54" height="30" rx="5" class="node" /><text class="text">Var(b)</text></g><g transform="translate(1130, 120)"><rect x="-45" y="-15" width="90" height="30" rx="5" class="node" /><text class="text">Assign(:=)</text></g><g transform="translate(1090, 200)"><rect x="-27" y="-15" width="54" height="30" rx="5" class="node" /><text class="text">Var(x)</text></g><g transform="translate(1170, 200)"><rect x="-31.5" y="-15" width="63" height="30" rx="5" class="node" /><text class="text">Num(11)</text></g><g transform="translate(1250, 120)"><rect x="-25" y="-15" width="50" height="30" rx="5" class="node" /><text class="text">NoOp</text></g></svg>