<svg width="1190" height="780" xmlns="http://www.w3.org/2000/svg"><style>
            .node { fill: #f0f0f0; stroke: #333; stroke-width: 2; }
            .text { font-family: sans-serif; font-size: 14px; text-anchor: middle; dominant-baseline: middle; fill: #333; }
            .link { stroke: #666; stroke-width: 2; }
        </style><rect x="0" y="0" width="1190" height="780" fill="#ffffff" /><line x1="590" y1="40" x2="590" y2="120" class="link" /><line x1="590" y1="120" x2="90" y2="200" class="link" /><line x1="590" y1="120" x2="250" y2="200" class="link" /><line x1="590" y1="120" x2="571.25" y2="200" class="link" /><line x1="590" y1="120" x2="1090" y2="200" class="link" /><line x1="90" y1="200" x2="50" y2="280" class="link" /><line x1="90" y1="200" x2="130" y2="280" class="link" /><line x1="250" y1="200" x2="210" y2="280" class="link" /><line x1="250" y1="200" x2="290" y2="280" class="link" /><line x1="571.25" y1="200" x2="410" y2="280" class="link" /><line x1="571.25" y1="200" x2="732.5" y2="280" class="link" /><line x1="410" y1="280" x2="370" y2="360" class="link" /><line x1="410" y1="280" x2="450" y2="360" class="link" /><line x1="732.5" y1="280" x2="570" y2="360" class="link" /><line x1="732.5" y1="280" x2="895" y2="360" class="link" /><line x1="570" y1="360" x2="530" y2="440" class="link" /><line x1="570" y1="360" x2="610" y2="440" class="link" /><line x1="895" y1="360" x2="780" y2="440" class="link" /><line x1="895" y1="360" x2="1010" y2="440" class="link" /><line x1="780" y1="440" x2="690" y2="520" class="link" /><line x1="780" y1="440" x2="870" y2="520" class="link" /><line x1="870" y1="520" x2="810" y2="600" class="link" /><line x1="870" y1="520" x2="930" y2="600" class="link" /><line x1="810" y1="600" x2="770" y2="680" class="link" /><line x1="810" y1="600" x2="850" y2="680" class="link" /><line x1="1090" y1="200" x2="1090" y2="280" class="link" /><g transform="translate(590, 40)"><rect x="-58.5" y="-15" width="117" height="30" rx="5" class="node" /><text class="text">Program(main)</text></g><g transform="translate(590, 120)"><rect x="-25" y="-15" width="50" height="30" rx="5" class="node" /><text class="text">Block</text></g><g transform="translate(90, 200)"><rect x="-31.5" y="-15" width="63" height="30" rx="5" class="node" /><text class="text">VarDecl</text></g><g transform="translate(50, 280)"><rect x="-27" y="-15" width="54" height="30" rx="5" class="node" /><text class="text">Var(x)</text></g><g transform="translate(130, 280)"><rect x="-45" y="-15" width="90" height="30" rx="5" class="node" /><text class="text">Type(REAL)</text></g><g transform="translate(250, 200)"><rect x="-31.5" y="-15" width="63" height="30" rx="5" class="node" /><text class="text">VarDecl</text></g><g transform="translate(210, 280)"><rect x="-27" y="-15" width="54" height="30" rx="5" class="node" /><text class="text">Var(y)</text></g><g transform="translate(290, 280)"><rect x="-45" y="-15" width="90" height="30" rx="5" class="node" /><text class="text">Type(REAL)</text></g><g transform="translate(571.25, 200)"><rect x="-67.5" y="-15" width="135" height="30" rx="5" class="node" /><text class="text">Function(alpha)</text></g><g transform="translate(410, 280)"><rect x="-25" y="-15" width="50" height="30" rx="5" class="node" /><text class="text">Param</text></g><g transform="translate(370, 360)"><rect x="-27" y="-15" width="54" height="30" rx="5" class="node" /><text class="text">Var(a)</text></g><g transform="translate(450, 360)"><rect x="-58.5" y="-15" width="117" height="30" rx="5" class="node" /><text class="text">Type(INTEGER)</text></g><g transform="translate(732.5, 280)"><rect x="-25" y="-15" width="50" height="30" rx="5" class="node" /><text class="text">Block</text></g><g transform="translate(570, 360)"><rect x="-31.5" y="-15" width="63" height="30" rx="5" class="node" /><text class="text">VarDecl</text></g><g transform="translate(530, 440)"><rect x="-27" y="-15" width="54" height="30" rx="5" class="node" /><text class="text">Var(y)</text></g><g transform="translate(610, 440)"><rect x="-58.5" y="-15" width="117" height="30" rx="5" class="node" /><text class="text">Type(INTEGER)</text></g><g transform="translate(895, 360)"><rect x="-36" y="-15" width="72" height="30" rx="5" class="node" /><text class="text">Compound</text></g><g transform="translate(780, 440)"><rect x="-45" y="-15" width="90" height="30" rx="5" class="node" /><text class="text">Assign(:=)</text></g><g transform="translate(690, 520)"><rect x="-27" y="-15" width="54" height="30" rx="5" class="node" /><text class="text">Var(x)</text></g><g transform="translate(870, 520)"><rect x="-36" y="-15" width="72" height="30" rx="5" class="node" /><text class="text">BinOp(+)</text></g><g transform="translate(810, 600)"><rect x="-36" y="-15" width="72" height="30" rx="5" class="node" /><text class="text">BinOp(+)</text></g><g transform="translate(770, 680)"><rect x="-27" y="-15" width="54" height="30" rx="5" class="node" /><text class="text">Var(b)</text></g><g transform="translate(850, 680)"><rect x="-27" y="-15" width="54" height="30" rx="5" class="node" /><text class="text">Var(x)</text></g><g transform="translate(930, 600)"><rect x="-27" y="-15" width="54" height="30" rx="5" class="node" /><text class="text">Var(y)</text></g><g transform="translate(1010, 440)"><rect x="-25" y="-15" width="50" height="30" rx="5" class="node" /><text class="text">NoOp</text></g><g transform="translate(1090, 200)"><rect x="-36" y="-15" width="72" height="30" rx="5" class="node" /><text class="text">Compound</text></g><g transform="translate(1090, 280)"><rect x="-25" y="-15" width="50" height="30" rx="5" class="node" /><text class="text">NoOp</text></g></svg>